<svg width="146" height="97" fill="none" xmlns="http://www.w3.org/2000/svg">
  <path d="M37.68 33.43c-.84-.1-1.66-.31-2.46-.62-.78-.3-1.5-.66-2.18-1.07a48.79 48.79 0 0 0-1.36 4.22c-.12.43-.25.82-.42 1.17-.16.34-.37.6-.65.79-.27.19-.65.25-1.14.2-.45-.06-.73-.27-.83-.64a3.4 3.4 0 0 1-.06-1.32c.02-.16.13-.57.33-1.23a246.92 246.92 0 0 1 1.65-5.3c-.52-.67-.76-1.25-.7-1.75.04-.25.14-.47.31-.68.2-.21.51-.29.97-.23.05 0 .13.04.23.1a118.83 118.83 0 0 0 1.01-3.56c.1-.55.24-.95.42-1.2s.38-.41.61-.47c.25-.07.49-.1.72-.07.31.04.54.13.68.29.15.15.19.45.13.9-.05.44-.1.84-.17 1.2a7.53 7.53 0 0 1 2.56-2.3 4.56 4.56 0 0 1 2.64-.46c.9.11 1.66.46 2.27 1.04a4.76 4.76 0 0 1 1.3 2.34c.26.96.31 2.1.15 3.4-.24 1.99-.88 3.41-1.92 4.28-1.03.85-2.39 1.17-4.09.97Zm-3.58-4.18c.5.36 1.05.68 1.64.98.59.28 1.2.46 1.85.54 1.04.12 1.83-.05 2.38-.53.56-.48.92-1.35 1.07-2.59.28-2.2-.25-3.39-1.58-3.55-.85-.1-1.74.27-2.66 1.12-.9.85-1.8 2.2-2.7 4.03ZM45.3 41a1.3 1.3 0 0 1-.9-.51c-.2-.3-.28-.7-.22-1.19.02-.22.1-.57.22-1.06a143.82 143.82 0 0 1 1.06-3.75 42.77 42.77 0 0 0 .91-3.62c.1-.55.3-.93.59-1.13.29-.22.62-.3.98-.26.3.04.55.14.77.32.23.16.35.46.35.9a8.2 8.2 0 0 1-.2 1.85 31.85 31.85 0 0 1 2.33-2.9c.79-.83 1.58-1.47 2.38-1.93 1.33-.77 2.48-1.1 3.46-.97.55.07.9.24 1.05.5.14.28.2.54.17.8a.93.93 0 0 1-.2.47c-.09.14-.27.27-.53.4-.27.13-.68.3-1.22.5-.73.26-1.47.64-2.21 1.13-.73.49-1.48 1.14-2.24 1.95-.77.8-1.57 1.82-2.4 3.04a53.13 53.13 0 0 0-2.66 4.4c-.2.47-.42.78-.69.91-.25.13-.52.18-.8.15Zm13.43 1.4a3.16 3.16 0 0 1-2.36-1.4 4.5 4.5 0 0 1-.58-3.1 5 5 0 0 1 .3-1.18c.17-.4.36-.76.56-1.1a1.82 1.82 0 0 1-.16-.52 6.64 6.64 0 0 1 4.52-6.37 4.9 4.9 0 0 1 2.15-.23 3.9 3.9 0 0 1 2.79 1.57c.67.9.9 2.2.7 3.9-.1.84-.34 1.69-.72 2.53a12.43 12.43 0 0 1-3.18 4.33 7.3 7.3 0 0 1-2.02 1.26 3.9 3.9 0 0 1-2 .31Zm.56-7.45c.06.17.07.36.04.58-.02.22-.1.44-.21.67a7.37 7.37 0 0 0-.72 2.54c-.02.19-.02.35.01.49.04.12.16.2.35.22.5.06.99-.04 1.46-.31.5-.27.95-.64 1.37-1.13a11.18 11.18 0 0 0 2.43-5.44c.04-.38 0-.65-.13-.81-.13-.17-.37-.27-.74-.32-.5-.06-1.03.04-1.6.3a4 4 0 0 0-1.44 1.1 3.19 3.19 0 0 0-.75 1.74l-.07.37Zm19.56-2.71c1.04-1.82 1.99-3.7 2.85-5.66.17-.4.38-.69.62-.88.26-.2.6-.26 1-.21.34.04.59.17.74.4.15.21.2.49.16.82-.03.28-.21.76-.53 1.45-.32.67-.72 1.53-1.19 2.57a50.2 50.2 0 0 0-2.9 8.19 40.15 40.15 0 0 0-1.02 5.4c-.06.52-.22.94-.46 1.25-.24.33-.6.46-1.08.4-.52-.06-.89-.3-1.09-.69-.19-.4-.25-.88-.18-1.45.14-1.12.3-2.05.46-2.79.18-.75.35-1.39.5-1.92a19.26 19.26 0 0 1-2.67 2.9 11.6 11.6 0 0 1-2.53 1.74c-.79.39-1.45.55-1.97.49a3.07 3.07 0 0 1-2.02-.98c-.48-.55-.66-1.32-.54-2.3.1-.76.37-1.52.84-2.27.46-.78 1.04-1.52 1.74-2.24a20.52 20.52 0 0 1 4.66-3.54c.8-.45 1.53-.8 2.2-1.02.67-.23 1.2-.32 1.6-.27.43.05.7.25.8.6Zm-.65 1.12a4.89 4.89 0 0 1-.6.26c-.6.28-1.24.63-1.92 1.05a20.98 20.98 0 0 0-3.98 3.03c-.58.57-1.06 1.15-1.44 1.74a4.15 4.15 0 0 0-.66 1.72c-.01.1.02.18.1.24.09.05.17.08.24.1.51.05 1.09-.1 1.73-.49a9.88 9.88 0 0 0 2.05-1.66c.73-.74 1.47-1.62 2.22-2.64a43.12 43.12 0 0 0 2.26-3.35Zm12.98 13.3a1.29 1.29 0 0 1-.87-.52c-.23-.3-.3-.76-.23-1.4a24 24 0 0 1 .35-1.93c.2-.84.49-1.9.88-3.2-.64.98-1.29 1.85-1.94 2.6a9.94 9.94 0 0 1-1.88 1.73c-.59.39-1.12.55-1.6.5-.78-.1-1.36-.41-1.76-.93-.39-.54-.5-1.47-.34-2.78.07-.63.21-1.34.41-2.11a33.81 33.81 0 0 1 1.52-4.36c.26-.6.49-1.05.67-1.34.15-.25.32-.43.52-.56.2-.12.46-.16.75-.13.47.06.8.26 1.02.6.2.33.3.66.25.98-.03.25-.13.6-.3 1.06a165.36 165.36 0 0 1-1.26 3.2c-.24.58-.45 1.13-.63 1.64-.17.51-.28.95-.32 1.32-.06.45.1.7.44.74.2.03.5-.14.86-.5.39-.35.8-.83 1.25-1.44a37.95 37.95 0 0 0 2.78-4.36c.44-.79.82-1.52 1.14-2.2.2-.41.44-.7.7-.84.28-.15.57-.2.9-.16.5.06.86.25 1.08.56.25.31.34.72.28 1.23-.03.24-.12.63-.26 1.17a81.1 81.1 0 0 1-.52 1.92c-.2.73-.42 1.5-.67 2.32a400.07 400.07 0 0 1-1.93 6.1c-.22.57-.44.9-.66 1-.21.09-.43.12-.63.1Zm9.66.82a3.92 3.92 0 0 1-3.51-4.33c.13-1.05.4-2 .84-2.86.43-.86.96-1.63 1.57-2.3a12.65 12.65 0 0 1 3.95-2.96 9.59 9.59 0 0 1 1.7-.68 3 3 0 0 1 1.08-.18c.4.05.66.17.8.36.15.19.2.47.16.85-.03.22-.22.46-.58.73-.34.27-.8.57-1.36.9-.54.33-1.12.71-1.74 1.14-.62.43-1.22.92-1.8 1.47a8.9 8.9 0 0 0-1.48 1.87c-.4.7-.65 1.47-.76 2.33-.04.32 0 .58.09.77.1.19.3.3.6.34.83.1 1.74.06 2.73-.11 1-.19 2-.45 3.01-.79a54.24 54.24 0 0 0 5.96-2.52.93.93 0 0 1 .4-.1c.44.05.63.3.57.76-.03.23-.24.53-.64.88-.47.46-1.1.92-1.86 1.37a25.35 25.35 0 0 1-7.77 2.94c-.8.14-1.44.18-1.96.12Zm27.04-8.52a.68.68 0 0 1-.23.44c-.14.12-.3.2-.48.26-.26.07-.7.15-1.34.23a182.18 182.18 0 0 1-5.17.57l-3.05.22-1.7 4.2c-.57 1.43-1.15 2.83-1.72 4.22-.2.49-.43.86-.67 1.1-.24.25-.6.34-1.1.28-.54-.07-.89-.29-1.03-.66-.14-.36-.1-.82.1-1.39l1.6-4.32 1.22-3.23c-.9.03-1.67.06-2.34.06-.67 0-1.14-.03-1.42-.08-.3-.07-.54-.22-.72-.47a1.08 1.08 0 0 1-.18-.84c.06-.3.22-.53.48-.7.26-.2.56-.29.89-.3.45.02 1.05.02 1.77.03.73 0 1.53 0 2.4-.02a52.99 52.99 0 0 1 2-4.43c.37-.71.71-1.33 1.03-1.85.32-.53.6-.9.83-1.13.18-.17.4-.29.64-.36.27-.07.51-.1.75-.07.3.04.54.18.7.43.16.24.23.5.2.8l-.08.37c-.03.11-.07.23-.13.34-.36.7-.77 1.54-1.22 2.54-.44 1-.9 2.1-1.39 3.3l3.28-.08 2.96-.13c.9-.05 1.61-.1 2.15-.16.3-.06.55-.01.74.16.19.16.27.38.23.67ZM19.33 65.38a1.42 1.42 0 0 1-.97-.47c-.2-.25-.28-.58-.23-.99.04-.38.18-.69.42-.93.24-.25.67-.46 1.28-.64l.14-.03a1.01 1.01 0 0 1-.7-.7 3.2 3.2 0 0 1-.05-1.2c.03-.24.13-.64.28-1.18a78.7 78.7 0 0 1 1.25-3.94l.6-1.84c.43-1.21.92-2.26 1.48-3.16a5.45 5.45 0 0 1 2.05-2 4.8 4.8 0 0 1 2.97-.45c.9.1 1.74.4 2.56.89a7.98 7.98 0 0 1 3.62 4.43 6.1 6.1 0 0 1-1.61 6.59 16.7 16.7 0 0 1-4.5 3.07 33.6 33.6 0 0 1-7.5 2.53c-.3.07-.67.07-1.1.02Zm2.34-3.5a37.68 37.68 0 0 0 5.43-1.8 8.82 8.82 0 0 0 3.13-2.1 5.06 5.06 0 0 0 1.26-2.83 2.93 2.93 0 0 0-.4-1.83 4.57 4.57 0 0 0-1.41-1.53A4.23 4.23 0 0 0 27.7 51c-.78-.1-1.44.14-1.98.71a7.85 7.85 0 0 0-1.51 3.02 188.85 188.85 0 0 0-2.02 6.12c-.13.43-.3.77-.53 1.03ZM39 67.2A2.8 2.8 0 0 1 36.92 66c-.48-.71-.63-1.78-.45-3.2a12.4 12.4 0 0 1 3.49-7.22 6.47 6.47 0 0 1 1.92-1.3c.67-.3 1.35-.41 2.02-.33 1.14.14 2 .56 2.56 1.25.57.7.8 1.51.68 2.46a3.49 3.49 0 0 1-.86 1.92c-.47.54-1.07 1-1.82 1.38-.74.39-1.56.71-2.46.99-.9.28-1.8.51-2.73.71-.14.52-.24.98-.29 1.39-.03.25.1.39.37.42.66.08 1.38.07 2.15-.04.78-.13 1.59-.31 2.4-.55.82-.26 1.6-.53 2.37-.8.76-.3 1.46-.57 2.08-.84.65-.27 1.17-.5 1.58-.65.42-.17.69-.25.8-.23.32.04.55.16.67.37a1 1 0 0 1 .14.64c0 .1-.23.3-.67.6-.43.3-1 .66-1.73 1.06a40.19 40.19 0 0 1-5.16 2.3c-.93.33-1.83.58-2.7.74-.85.18-1.61.22-2.28.14Zm.88-6.46a45 45 0 0 0 1.91-.87c.65-.32 1.2-.7 1.65-1.14.46-.44.73-1 .8-1.65.03-.2 0-.33-.1-.4a.75.75 0 0 0-.42-.16c-.52-.06-1.01.1-1.5.5-.46.41-.9.95-1.3 1.63-.4.66-.74 1.36-1.04 2.1Zm11.55 8.37c-.63-.08-1.06-.22-1.3-.43a.89.89 0 0 1-.28-.81c.04-.3.17-.53.4-.7.23-.2.7-.37 1.44-.5.85-.15 1.66-.34 2.43-.57a7.84 7.84 0 0 0 1.95-.87c.53-.34.83-.72.88-1.16.04-.3-.04-.52-.23-.67-.17-.16-.4-.25-.65-.29a22.96 22.96 0 0 0-2.37.06c-.51.04-1 .06-1.48.07-.46 0-.85-.01-1.17-.05-.76-.1-1.3-.33-1.63-.71-.32-.4-.45-.87-.38-1.41.03-.3.24-.68.6-1.15.38-.47.86-.99 1.44-1.54a24.8 24.8 0 0 1 4.06-3.08c.72-.45 1.39-.79 2.01-1.02a3.27 3.27 0 0 1 1.55-.3c.47.06.83.25 1.07.58.25.32.35.74.29 1.23-.03.24-.08.5-.16.76s-.22.49-.42.69c-.2.18-.49.3-.86.34-.38.04-.87-.04-1.49-.23-.54.3-1.1.64-1.7 1.01-.58.36-1.13.75-1.66 1.16-.52.4-.97.79-1.33 1.19.57-.1 1.2-.17 1.9-.19.7-.03 1.4 0 2.1.08.85.1 1.52.34 2 .72.51.35.86.8 1.04 1.33a3.49 3.49 0 0 1-.71 3.62 7.48 7.48 0 0 1-1.98 1.63c-.8.47-1.67.81-2.6 1.04-.93.22-1.85.28-2.76.17Zm11.26.58c-.41-.05-.76-.23-1.05-.55-.27-.31-.37-.78-.29-1.41.04-.34.14-.8.3-1.41a52.6 52.6 0 0 1 1.43-4.05c.3-.7.58-1.3.84-1.84.26-.55.48-.95.66-1.2.23-.32.43-.5.6-.56.19-.06.36-.09.52-.07.3.04.55.16.78.37.24.2.32.6.25 1.2-.03.24-.12.61-.27 1.13a97 97 0 0 1-1.25 3.83l-.7 2.03-.52 1.58c-.12.36-.31.6-.57.76-.24.16-.48.22-.73.2Zm4.18-13.15a2.35 2.35 0 0 1-1.29-.58c-.37-.34-.52-.81-.45-1.41.06-.5.24-.88.52-1.16.29-.28.6-.46.96-.55.37-.1.68-.14.95-.1.26.03.55.12.85.28.31.14.57.37.76.7.22.3.3.72.23 1.24-.05.35-.2.66-.5.92-.28.25-.61.43-1 .55-.37.11-.71.15-1.03.11ZM69.4 76.6a9.87 9.87 0 0 1-2.47-.55c-.54-.23-.9-.49-1.06-.78a1.23 1.23 0 0 1 .25-1.66c.27-.2.6-.28 1-.23.27.03.64.12 1.13.25.49.13.98.23 1.48.3a5.97 5.97 0 0 0 3.74-.61 6.76 6.76 0 0 0 2.63-2.86c.71-1.36 1.3-3.1 1.77-5.22a15.39 15.39 0 0 1-3.84 3.56 5.96 5.96 0 0 1-3.98 1.02c-1.55-.19-2.23-1.04-2.04-2.56.09-.73.38-1.48.88-2.23.49-.76 1.11-1.49 1.87-2.2a21 21 0 0 1 2.44-1.97c.88-.62 1.75-1.15 2.6-1.6.87-.43 1.67-.77 2.4-.99.72-.23 1.3-.33 1.72-.27.34.04.62.13.86.28.25.15.42.4.53.78.1.35.11.86.03 1.51-.22 1.83-.5 3.6-.85 5.29a26.89 26.89 0 0 1-1.35 4.61c-.56 1.4-1.27 2.6-2.13 3.6-.85.99-1.9 1.71-3.14 2.17a9.58 9.58 0 0 1-4.47.36Zm1.47-9.44c-.01.1.03.16.11.17.3.04.7-.07 1.24-.31A12.2 12.2 0 0 0 74 65.94a16.45 16.45 0 0 0 3.66-3.49c.52-.66.92-1.31 1.2-1.96a29.4 29.4 0 0 0-5.07 2.8c-.78.57-1.44 1.19-1.98 1.85a3.97 3.97 0 0 0-.92 2.02Zm15 5.05a1.9 1.9 0 0 1-1.01-.48 2.8 2.8 0 0 1-.7-1.15c-.17-.5-.21-1.07-.13-1.73.1-.88.34-1.8.7-2.76.37-.97.79-1.92 1.26-2.87.48-.95.94-1.85 1.38-2.68.21-.4.44-.67.7-.79.25-.13.57-.17.95-.12.86.1 1.24.59 1.13 1.45a3.7 3.7 0 0 1-.3.83 284.58 284.58 0 0 0-1.61 3.32 24.63 24.63 0 0 0-1.54 3.97c.4-.47.85-1.06 1.36-1.77l1.63-2.27c.59-.79 1.17-1.52 1.74-2.19a11.2 11.2 0 0 1 1.65-1.64c.53-.41 1-.59 1.42-.54.37.05.7.16 1 .35.33.17.59.47.79.9.2.4.32.98.37 1.7.05.74.01 1.7-.13 2.86a9.5 9.5 0 0 0-.06 1.73c.05.56.18 1.04.4 1.43.22.39.57.6 1.06.67.83.1 1.6.04 2.29-.19.7-.22 1.32-.51 1.86-.86a33.6 33.6 0 0 0 1.97-1.34c.18-.1.31-.14.42-.12.3.03.51.14.63.32s.17.4.13.68c-.02.15-.17.4-.47.77a13.15 13.15 0 0 1-2.91 2.5c-.63.39-1.29.7-1.98.92-.7.23-1.4.3-2.08.22a6.06 6.06 0 0 1-2.8-.97 3.88 3.88 0 0 1-1.4-2.31 12.2 12.2 0 0 1-.05-4.12l.03-.22a29.38 29.38 0 0 0 .16-2.08l-1.1 1.52-1.34 1.88c-.48.65-.98 1.3-1.49 1.93-.5.62-1 1.18-1.5 1.69-.47.5-.92.9-1.34 1.19-.42.29-.79.41-1.1.37Zm27.5-6.25c-.12.95-.78 1.83-1.97 2.63-1.19.79-2.94 1.4-5.28 1.84l-.01.07c-.06.48-.05.88.03 1.18.08.3.32.47.72.51.58.08 1.25-.02 2.01-.28.78-.28 1.59-.65 2.43-1.1.86-.48 1.7-.98 2.52-1.52.83-.54 1.59-1.04 2.28-1.52.72-.5 1.31-.89 1.8-1.18.5-.31.82-.46.96-.44.3.04.55.19.73.44.19.27.25.63.2 1.1l-.16.93a10.36 10.36 0 0 1 2.57-2.46 9.86 9.86 0 0 1 2.7-1.32c.88-.26 1.6-.35 2.2-.28.65.08 1.08.27 1.28.56.2.27.29.55.26.83-.02.16-.08.32-.17.47-.08.14-.26.28-.54.42-.27.15-.72.3-1.33.46-.81.2-1.6.45-2.34.76-.74.3-1.44.77-2.1 1.39-.66.6-1.3 1.44-1.9 2.52a22.05 22.05 0 0 0-1.67 4.2c-.17.49-.37.8-.61.95-.24.17-.51.23-.8.2l-.16-.02c-.13 0-.27-.04-.4-.1-.14-.04-.25-.19-.36-.42-.09-.22-.14-.59-.15-1.11a25.5 25.5 0 0 1 .91-5.96c-.83.64-1.72 1.28-2.66 1.92-.94.64-1.9 1.22-2.88 1.73-.97.5-1.91.9-2.82 1.17-.9.28-1.7.37-2.44.28a3.3 3.3 0 0 1-2.3-1.24c-.53-.72-.71-1.74-.55-3.07.16-1.32.48-2.49.97-3.51.5-1.04 1.08-1.91 1.74-2.61a6.98 6.98 0 0 1 2.04-1.56 3.47 3.47 0 0 1 1.92-.4c1.21.14 2.1.55 2.66 1.21.55.65.78 1.43.67 2.33Zm-6.73 2.56a20.66 20.66 0 0 0 2.62-1.17c.41-.25.75-.5 1.02-.74.28-.25.44-.5.47-.75.05-.4-.03-.67-.26-.79-.2-.13-.5-.21-.88-.26-.4-.05-.78.12-1.15.5-.37.37-.71.85-1.02 1.44-.31.58-.58 1.17-.8 1.77Z" fill="#433E3F"/>
</svg>
