<svg width="129" height="29" viewBox="0 0 129 29" fill="none" xmlns="http://www.w3.org/2000/svg">
<path d="M35.5407 27.3517C35.5407 27.6791 35.4687 27.8821 35.3246 27.9607C35.1936 28.0393 34.8466 28.0655 34.2834 28.0393C30.8651 27.8952 28.2129 27.8952 26.3269 28.0393C25.7376 28.0786 25.4429 27.8494 25.4429 27.3517C25.4429 27.0767 25.7376 26.8802 26.3269 26.7623C27.4926 26.5004 28.1933 26.2843 28.429 26.114C28.7171 25.8914 28.8481 25.3937 28.8219 24.621L28.1343 7.84368C28.1212 7.50316 28.0296 7.3329 27.8593 7.3329C27.7283 7.3329 27.6039 7.45077 27.486 7.68652C25.1548 12.3753 23.5176 15.7084 22.5746 17.6861C20.6756 21.6283 19.3331 24.621 18.5473 26.6641C18.1937 27.6202 18.0103 28.1113 17.9972 28.1375C17.8663 28.3733 17.6764 28.5304 17.4275 28.609C17.2965 28.6483 17.1852 28.6679 17.0935 28.6679C16.8316 28.6679 16.5959 28.2816 16.3863 27.5089C15.5612 24.5489 12.7191 17.9808 7.86014 7.80439C7.71607 7.50316 7.55891 7.35254 7.38864 7.35254C7.17909 7.35254 7.06777 7.55555 7.05467 7.96155C6.87131 11.8514 6.65521 17.0312 6.40637 23.5012C6.32779 25.23 7.19874 26.2581 9.01922 26.5855C9.73956 26.7165 10.0997 26.9719 10.0997 27.3517C10.0997 27.6791 10.0277 27.8821 9.88363 27.9607C9.75266 28.0393 9.41213 28.0655 8.86206 28.0393C5.84974 27.9214 3.51192 27.9214 1.8486 28.0393C1.25924 28.0786 0.964554 27.8494 0.964554 27.3517C0.964554 27.0767 1.25924 26.8802 1.8486 26.7623C2.89636 26.5397 3.58396 26.1926 3.91138 25.7211C4.17332 25.3544 4.31739 24.693 4.34359 23.7369L5.03118 6.35062C5.05737 5.59099 4.90676 5.00817 4.57933 4.60217C4.2912 4.24855 3.70838 3.86873 2.83088 3.46273C2.20222 3.17459 1.90754 2.86681 1.94683 2.53938C1.97302 2.18577 2.25461 2.04825 2.79159 2.12683C4.79543 2.41496 6.55043 2.46735 8.05659 2.28399C8.63286 2.21851 9.02577 2.2316 9.23532 2.32328C9.44488 2.41496 9.62824 2.64416 9.7854 3.01088L17.9972 21.8117C18.102 22.0736 18.1937 22.2046 18.2723 22.2046C18.3509 22.2046 18.4687 22.0278 18.6259 21.6741C19.1498 20.5478 22.077 14.4773 27.4074 3.46273C27.7349 2.79478 28.1474 2.4608 28.6451 2.4608C29.8631 2.4608 31.5658 2.28399 33.753 1.93037C34.2506 1.85179 34.5584 1.8256 34.6763 1.85179C34.8989 1.91728 35.0103 2.15957 35.0103 2.57868C35.0103 2.893 34.6632 3.16149 33.9691 3.38414C32.3319 3.89493 31.5265 4.51049 31.5527 5.23082L32.2795 24.3459C32.3057 25.1056 32.4956 25.6425 32.8493 25.9569C33.1374 26.2319 33.6678 26.4415 34.4405 26.5855C35.174 26.7296 35.5407 26.985 35.5407 27.3517ZM54.1057 24.6995C54.1057 25.2627 53.3461 25.9634 51.8268 26.8016C50.098 27.7315 48.3234 28.1965 46.5029 28.1965C44.5253 28.1965 42.8619 27.5482 41.5129 26.2515C40.0723 24.8764 39.3519 23.0428 39.3519 20.7508C39.3519 18.1576 40.1574 16.0752 41.7683 14.5035C43.2745 13.0366 45.1212 12.3032 47.3084 12.3032C48.605 12.3032 49.8165 12.7158 50.9428 13.5409C51.9513 14.2743 52.6192 15.1125 52.9466 16.0555C53.0645 16.3829 53.2413 16.5663 53.4771 16.6056C53.8176 16.6711 53.9879 16.9003 53.9879 17.2932C53.9879 17.8302 53.3461 18.2886 52.0626 18.6684L43.006 21.3598C43.5954 24.4769 45.1932 26.0354 47.7995 26.0354C49.3057 26.0354 51.0214 25.4854 52.9466 24.3852C53.2348 24.215 53.5164 24.1298 53.7914 24.1298C54.001 24.1298 54.1057 24.3197 54.1057 24.6995ZM49.4497 16.8217C49.4497 16.1014 49.1551 15.4727 48.5657 14.9357C47.9894 14.3856 47.2756 14.1106 46.4243 14.1106C44.0145 14.1106 42.8095 15.846 42.8095 19.3167V19.7882L48.1531 18.1772C49.0175 17.9284 49.4497 17.4765 49.4497 16.8217ZM67.8183 26.1533C67.8183 26.782 67.242 27.319 66.0895 27.7643C65.0679 28.1572 64.0333 28.3536 62.9855 28.3536C60.1435 28.3536 58.7224 26.8409 58.7224 23.8155V16.7038C58.7224 15.8001 58.6504 15.25 58.5063 15.0536C58.3623 14.844 57.8842 14.641 57.0722 14.4446C56.8627 14.3922 56.7579 14.1892 56.7579 13.8356C56.7579 13.4558 56.8365 13.2266 56.9936 13.148C58.4081 12.4538 59.6392 11.2096 60.687 9.41532C60.8311 9.16648 61.1126 9.0879 61.5317 9.17958C61.8199 9.27126 61.9705 9.44152 61.9836 9.69036L62.0622 12.1461C62.0622 12.3294 62.0949 12.4604 62.1604 12.539C62.2521 12.6568 62.4616 12.7158 62.7891 12.7158H67.17C67.4189 12.7158 67.4189 13.0236 67.17 13.6391C66.8688 14.3856 66.4235 14.7589 65.8341 14.7589H62.8676C62.3569 14.7589 62.0425 14.844 61.9247 15.0143C61.833 15.1322 61.7871 15.4531 61.7871 15.9769V22.401C61.7871 24.0251 61.9312 25.0532 62.2193 25.4854C62.5992 26.0354 63.4832 26.3105 64.8715 26.3105C65.3299 26.3105 65.8865 26.2385 66.5414 26.0944C67.1962 25.9372 67.5433 25.8586 67.5826 25.8586C67.7397 25.8586 67.8183 25.9569 67.8183 26.1533ZM86.2458 26.114C86.2458 26.3891 85.7416 26.8082 84.7331 27.3713C83.7377 27.9214 82.9388 28.1965 82.3364 28.1965C81.8256 28.1965 81.3737 27.9476 80.9808 27.4499C80.5879 26.9522 80.3129 26.7034 80.1557 26.7034C80.0378 26.7034 79.4157 26.9719 78.2894 27.5089C77.163 28.0458 76.0301 28.3143 74.8907 28.3143C73.8168 28.3143 72.9196 28 72.1993 27.3713C71.4134 26.6772 71.0205 25.7342 71.0205 24.5424C71.0205 22.2766 73.6137 20.6526 78.8002 19.6703C79.6908 19.5 80.1426 19.1399 80.1557 18.5898L80.195 17.3325C80.2736 15.1846 79.3241 14.1106 77.3464 14.1106C76.7832 14.1106 76.2462 14.6148 75.7355 15.6233C75.2378 16.6318 74.5174 17.1753 73.5745 17.2539C72.5005 17.3587 71.9635 16.9068 71.9635 15.8983C71.9635 15.2697 72.7624 14.5363 74.3603 13.698C76.0367 12.8205 77.6476 12.3818 79.1931 12.3818C81.8518 12.3818 83.168 13.6457 83.1418 16.1734L83.0633 24.2673C83.0502 25.1187 83.4103 25.5443 84.1438 25.5443C84.2878 25.5443 84.5629 25.5116 84.9689 25.4461C85.3749 25.3806 85.6106 25.3479 85.6761 25.3479C86.0559 25.3479 86.2458 25.6032 86.2458 26.114ZM80.195 21.6348C80.2081 21.3074 80.1295 21.0913 79.9593 20.9865C79.8021 20.8818 79.5467 20.8621 79.1931 20.9276C76.0367 21.4908 74.4585 22.5189 74.4585 24.012C74.4585 25.5181 75.2771 26.2712 76.9142 26.2712C77.569 26.2712 78.2435 26.1468 78.9377 25.8979C79.7497 25.6098 80.1557 25.2627 80.1557 24.8567L80.195 21.6348ZM103.298 1.20349C103.298 1.75356 103.049 2.39532 102.552 3.12875C102.054 3.86218 101.661 4.2289 101.373 4.2289C101.019 4.2289 100.646 4.05209 100.253 3.69847C99.428 3.10911 98.7011 2.81442 98.0724 2.81442C95.584 2.81442 94.3398 4.55633 94.3398 8.04014V12.2639C94.3398 12.9188 94.903 13.2004 96.0293 13.1087L98.5243 12.9122C99.5066 12.8336 100.044 12.9908 100.135 13.3837C100.161 13.5147 100.175 13.7046 100.175 13.9534C100.175 14.4904 100.044 14.8244 99.7816 14.9554C99.6244 15.047 99.2184 15.0929 98.5636 15.0929H96.0686C94.9554 15.0929 94.3791 15.3286 94.3398 15.8001C94.3136 16.0752 94.3136 18.9238 94.3398 24.3459C94.3398 25.0794 94.6803 25.6032 95.3614 25.9176C95.8721 26.1664 96.7235 26.3367 97.9153 26.4284C98.3868 26.4676 98.6684 26.5266 98.76 26.6052C98.8648 26.6707 98.9172 26.8802 98.9172 27.2338C98.9172 27.6398 98.8583 27.8821 98.7404 27.9607C98.6356 28.0393 98.3606 28.0655 97.9153 28.0393C95.0208 27.8821 92.4211 27.9214 90.116 28.1572C89.5135 28.2226 89.1468 28.2226 89.0159 28.1572C88.8849 28.0917 88.8194 27.8625 88.8194 27.4696C88.8194 27.1421 89.1992 26.8737 89.9588 26.6641C90.8625 26.4153 91.3144 25.7604 91.3144 24.6995V17.0574C91.3144 16.2585 91.19 15.7019 90.9411 15.3876C90.7709 15.178 90.4434 14.9947 89.9588 14.8375C89.1992 14.6017 88.8194 14.2285 88.8194 13.7177C88.8194 13.3641 88.9766 13.1414 89.2909 13.0497C89.3957 13.0236 89.7231 13.0039 90.2732 12.9908C90.7447 12.9777 91.0393 12.8729 91.1572 12.6765C91.2358 12.5324 91.2751 12.1788 91.2751 11.6156V8.49198C91.2751 6.00355 92.2967 3.96696 94.3398 2.38222C96.2913 0.876063 98.688 0.122984 101.53 0.122984C102.709 0.122984 103.298 0.483152 103.298 1.20349ZM109.919 5.27011C109.919 5.87258 109.69 6.43575 109.231 6.95963C108.786 7.47041 108.295 7.72581 107.758 7.72581C107.142 7.72581 106.638 7.54245 106.245 7.17573C105.852 6.80901 105.656 6.33097 105.656 5.74161C105.656 5.16534 105.891 4.62836 106.363 4.13067C106.847 3.63299 107.365 3.38414 107.915 3.38414C109.251 3.38414 109.919 4.0128 109.919 5.27011ZM112.099 27.5089C112.034 27.8887 111.877 28.1048 111.628 28.1572C111.562 28.1703 111.248 28.1572 110.685 28.1179C108.733 27.9869 106.815 28.0131 104.929 28.1965C104.418 28.2488 104.097 28.2292 103.966 28.1375C103.835 28.0458 103.77 27.8363 103.77 27.5089C103.77 27.2076 104.117 26.9588 104.811 26.7623C105.57 26.5397 105.95 25.8128 105.95 24.5817V19.4345C105.95 18.3999 105.846 17.673 105.636 17.2539C105.348 16.6776 104.752 16.2389 103.848 15.9376C103.442 15.7936 103.239 15.5775 103.239 15.2893C103.239 14.9095 103.534 14.6279 104.123 14.4446C105.223 14.1041 106.199 13.6522 107.05 13.089C107.731 12.6175 108.151 12.3818 108.308 12.3818C108.832 12.3818 109.087 12.7223 109.074 13.4034C109.022 16.8348 108.995 20.3317 108.995 23.8941C108.995 24.7454 109.12 25.3544 109.369 25.7211C109.644 26.1271 110.168 26.4153 110.94 26.5855C111.792 26.782 112.178 27.0898 112.099 27.5089ZM128.602 25.4657C128.602 25.9503 127.927 26.5397 126.578 27.2338C125.111 27.9804 123.664 28.3536 122.236 28.3536C120.01 28.3536 118.189 27.725 116.775 26.4676C115.295 25.1318 114.555 23.3244 114.555 21.0455C114.555 18.5963 115.406 16.5597 117.109 14.9357C118.772 13.351 120.815 12.5586 123.238 12.5586C124.705 12.5586 125.982 12.7682 127.069 13.1873C128.065 13.5802 128.562 13.9993 128.562 14.4446C128.562 14.7458 128.313 15.2042 127.816 15.8198C127.331 16.4353 126.932 16.7431 126.617 16.7431C126.421 16.7431 125.969 16.4615 125.262 15.8983C123.939 14.8506 122.904 14.3267 122.158 14.3267C120.979 14.3267 120.01 14.772 119.25 15.6626C118.451 16.6318 118.052 17.9677 118.052 19.6703C118.052 21.7265 118.628 23.3702 119.781 24.6013C120.829 25.7146 122.092 26.2712 123.572 26.2712C125.039 26.2712 126.421 25.8652 127.718 25.0532C127.835 24.9746 127.993 24.9353 128.189 24.9353C128.464 24.9353 128.602 25.1121 128.602 25.4657Z" fill="#4A5E6D"/>
</svg>
