<svg width="100" height="30" viewBox="0 0 100 30" fill="none" xmlns="http://www.w3.org/2000/svg">
<path d="M0.414044 8.07829H2.90856L3.27066 9.56695L4.27651 9.08414C5.13484 8.65498 5.84564 8.3331 6.40892 8.11852C6.99902 7.90394 7.58912 7.79665 8.17922 7.79665V10.1705C7.83052 10.1705 7.36112 10.2778 6.77103 10.4923C6.18093 10.6801 5.13484 11.1361 3.63277 11.8603V29H0.414044V8.07829ZM15.3641 29C13.8889 29 12.7087 28.5574 11.8235 27.6723C10.9652 26.7871 10.5361 25.5935 10.5361 24.0914V13.3892C10.5361 11.6457 11.0189 10.2778 11.9845 9.28531C12.9501 8.29287 14.3851 7.79665 16.2895 7.79665C18.1939 7.79665 19.6155 8.29287 20.5543 9.28531C21.52 10.2778 22.0028 11.6457 22.0028 13.3892V15.24C22.0028 16.3665 21.6809 17.2248 21.0371 17.8149C20.3934 18.3782 19.5485 18.8074 18.5024 19.1024L13.7548 20.4301V24.3731C13.7548 25.0168 13.9425 25.5533 14.3181 25.9824C14.7204 26.3848 15.23 26.586 15.8469 26.586H20.1922V29H15.3641ZM16.2091 17.2114C17.0942 16.97 17.6843 16.7957 17.9794 16.6884C18.3012 16.5543 18.5158 16.3665 18.6231 16.1251C18.7304 15.8837 18.784 15.4814 18.784 14.9181V12.7052C18.784 11.8469 18.556 11.2165 18.1001 10.8142C17.6709 10.4119 17.0674 10.2107 16.2895 10.2107C15.5385 10.2107 14.9216 10.4253 14.4388 10.8544C13.9828 11.2836 13.7548 11.9005 13.7548 12.7052V17.8954L16.2091 17.2114ZM25.2469 29V0.836157H28.4657V29H25.2469ZM37.5262 29C36.5606 29 35.662 28.7586 34.8305 28.2758C34.0258 27.793 33.3821 27.1358 32.8993 26.3043C32.4433 25.4728 32.2153 24.534 32.2153 23.4879V21.3958C32.2153 20.1351 32.5238 19.0756 33.1407 18.2173C33.7844 17.3589 34.5757 16.7554 35.5145 16.4067L40.5035 14.556V12.665C40.5035 12.0212 40.3023 11.4982 39.9 11.0958C39.5245 10.6667 39.0283 10.4521 38.4113 10.4521H33.8649V8.07829H38.693C40.1682 8.07829 41.335 8.52086 42.1933 9.40601C43.0785 10.2643 43.5211 11.4445 43.5211 12.9466V29H37.5262ZM40.5035 26.5457V17.0907L36.9629 18.4184C36.2655 18.6867 35.7693 19.0488 35.4743 19.5048C35.206 19.9607 35.0719 20.685 35.0719 21.6774V23.9305C35.0719 24.6547 35.3401 25.2716 35.8766 25.7813C36.413 26.2909 37.0568 26.5457 37.8078 26.5457H40.5035ZM53.7902 29C52.3149 29 51.1481 28.5574 50.2898 27.6723C49.4315 26.7871 49.0023 25.5935 49.0023 24.0914V10.4923H46.5883V8.07829H49.0023V2.00295L52.2211 0.795924V8.07829H55.4398V10.4923H52.2211V24.3731C52.2211 25.0168 52.3954 25.5533 52.7441 25.9824C53.1196 26.3848 53.6158 26.586 54.2328 26.586H55.4398V29H53.7902ZM62.9082 29C61.9426 29 61.044 28.7586 60.2125 28.2758C59.4079 27.793 58.7641 27.1358 58.2813 26.3043C57.8253 25.4728 57.5973 24.534 57.5973 23.4879V21.3958C57.5973 20.1351 57.9058 19.0756 58.5227 18.2173C59.1665 17.3589 59.9577 16.7554 60.8965 16.4067L65.8855 14.556V12.665C65.8855 12.0212 65.6844 11.4982 65.282 11.0958C64.9065 10.6667 64.4103 10.4521 63.7934 10.4521H59.2469V8.07829H64.075C65.5503 8.07829 66.717 8.52086 67.5754 9.40601C68.4605 10.2643 68.9031 11.4445 68.9031 12.9466V29H62.9082ZM65.8855 26.5457V17.0907L62.3449 18.4184C61.6476 18.6867 61.1513 19.0488 60.8563 19.5048C60.5881 19.9607 60.4539 20.685 60.4539 21.6774V23.9305C60.4539 24.6547 60.7222 25.2716 61.2586 25.7813C61.7951 26.2909 62.4388 26.5457 63.1899 26.5457H65.8855ZM72.5738 29V24.8559H75.7926V29H72.5738ZM80.3321 4.65839V1.43967H83.5508V4.65839H80.3321ZM80.3321 29V8.07829H83.5508V29H80.3321ZM93.4965 29.2816C91.6189 29.2816 90.1571 28.8122 89.111 27.8734C88.0917 26.9078 87.5821 25.5801 87.5821 23.8903V13.188C87.5821 11.4982 88.0917 10.1839 89.111 9.24508C90.1571 8.27946 91.6189 7.79665 93.4965 7.79665C95.3741 7.79665 96.8225 8.27946 97.8418 9.24508C98.8878 10.1839 99.4109 11.4982 99.4109 13.188V23.8903C99.4109 25.5801 98.8878 26.9078 97.8418 27.8734C96.8225 28.8122 95.3741 29.2816 93.4965 29.2816ZM93.4965 26.7871C94.3548 26.7871 95.0254 26.5457 95.5082 26.0629C96.0178 25.5533 96.2726 24.8291 96.2726 23.8903V13.188C96.2726 12.2492 96.0178 11.5384 95.5082 11.0556C95.0254 10.546 94.3548 10.2912 93.4965 10.2912C92.6382 10.2912 91.9542 10.546 91.4445 11.0556C90.9617 11.5384 90.7203 12.2492 90.7203 13.188V23.8903C90.7203 24.8291 90.9617 25.5533 91.4445 26.0629C91.9542 26.5457 92.6382 26.7871 93.4965 26.7871Z" fill="#4A5E6D"/>
</svg>
