<svg width="81" height="34" viewBox="0 0 81 34" fill="none" xmlns="http://www.w3.org/2000/svg">
<path d="M28.4648 31.4688C28.4648 32.0286 28.1654 32.4714 27.5664 32.7969C27.0456 33.0833 26.4336 33.2266 25.7305 33.2266C24.1159 33.2266 22.651 32.8164 21.3359 31.9961C20.151 31.2539 19.1289 30.2057 18.2695 28.8516C17.8268 28.1354 17.4492 27.2305 17.1367 26.1367C17.0456 25.8112 16.8242 24.8411 16.4727 23.2266C16.2253 22.0807 15.9648 21.1693 15.6914 20.4922C15.2878 20.6094 14.8776 20.707 14.4609 20.7852C14.0573 20.8503 13.6602 20.8828 13.2695 20.8828C12.3841 20.8828 11.6745 20.7396 11.1406 20.4531C10.5026 20.1146 10.1836 19.6068 10.1836 18.9297C10.1836 18.3307 10.4961 17.8555 11.1211 17.5039C11.6549 17.2044 12.293 17.0547 13.0352 17.0547C13.7253 17.0547 14.3893 17.1979 15.0273 17.4844C15.6784 17.7578 16.1992 18.1745 16.5898 18.7344C17.8789 18.0833 18.9727 17.0612 19.8711 15.668C20.8607 14.1445 21.3555 12.5234 21.3555 10.8047C21.3555 8.27865 20.4896 6.16927 18.7578 4.47656C17.026 2.78385 14.806 1.9375 12.0977 1.9375C10.6523 1.9375 9.54557 1.99609 8.77734 2.11328C7.59245 2.29557 6.42057 2.67969 5.26172 3.26562C4.44141 3.68229 3.72526 4.19661 3.11328 4.80859C2.38411 5.55078 2.01953 6.26042 2.01953 6.9375C2.00651 7.09375 2 7.19792 2 7.25C2 7.61458 2.07812 7.93359 2.23438 8.20703C2.40365 8.48047 2.64453 8.61719 2.95703 8.61719C3.23047 8.61719 3.44531 8.54557 3.60156 8.40234C3.75781 8.25911 3.88151 7.99219 3.97266 7.60156C4.01172 7.44531 4.07031 7.36719 4.14844 7.36719C4.22656 7.36719 4.28516 7.41927 4.32422 7.52344C4.53255 7.77083 4.63672 8.1224 4.63672 8.57812C4.63672 9.09896 4.44141 9.54167 4.05078 9.90625C3.66016 10.2708 3.19141 10.4531 2.64453 10.4531C2.00651 10.4531 1.48568 10.2057 1.08203 9.71094C0.691406 9.21615 0.496094 8.61719 0.496094 7.91406C0.496094 6.78125 0.90625 5.72656 1.72656 4.75C2.36458 3.98177 3.24349 3.27865 4.36328 2.64062C5.80859 1.82031 7.29297 1.25391 8.81641 0.941406C10.0273 0.69401 11.5378 0.570312 13.3477 0.570312C16.4206 0.570312 19.0312 1.44271 21.1797 3.1875C23.4062 4.9974 24.5195 7.25 24.5195 9.94531C24.5195 12.1979 23.7904 14.2682 22.332 16.1562C21.0299 17.849 19.4023 19.099 17.4492 19.9062C17.918 20.5052 18.3607 21.2214 18.7773 22.0547C19.194 22.888 19.6107 23.8516 20.0273 24.9453C20.6654 26.599 21.1146 27.6992 21.375 28.2461C21.974 29.5091 22.5794 30.4727 23.1914 31.1367C23.9466 31.957 24.7669 32.3672 25.6523 32.3672C25.9779 32.3672 26.2839 32.2956 26.5703 32.1523C26.8568 32.0091 27.0195 31.7943 27.0586 31.5078C27.0586 31.2734 27.0391 31.0977 27 30.9805C26.974 30.8763 26.9154 30.7721 26.8242 30.668C26.7461 30.5768 26.707 30.5052 26.707 30.4531C26.707 30.388 26.7591 30.3359 26.8633 30.2969C27.1497 30.2448 27.4883 30.3294 27.8789 30.5508C28.2695 30.7721 28.4648 31.0781 28.4648 31.4688ZM10.2617 28.0703C10.2878 28.0964 10.3073 28.1354 10.3203 28.1875C10.3333 28.2266 10.3398 28.2591 10.3398 28.2852C10.3398 28.4284 10.2227 28.5 9.98828 28.5C9.85807 28.513 9.46745 28.5 8.81641 28.4609C8.17839 28.4089 7.73568 28.3828 7.48828 28.3828C7.07161 28.3828 6.44661 28.4154 5.61328 28.4805C5.30078 28.5065 5.07943 28.513 4.94922 28.5C4.72786 28.5 4.61719 28.4219 4.61719 28.2656C4.61719 28.2005 4.63672 28.1484 4.67578 28.1094C4.71484 28.0573 4.99479 27.8294 5.51562 27.4258C5.91927 27.1133 6.12109 26.8333 6.12109 26.5859V8.38281C6.12109 7.97917 6.00391 7.6862 5.76953 7.50391C5.74349 7.47786 5.53516 7.38021 5.14453 7.21094C5.01432 7.15885 4.94922 7.09375 4.94922 7.01562C4.94922 6.95052 5.02734 6.84635 5.18359 6.70312C5.5612 6.49479 5.89974 6.30599 6.19922 6.13672C6.42057 6.01953 6.74609 5.82422 7.17578 5.55078C7.60547 5.27734 8.19141 4.84766 8.93359 4.26172C9.29818 3.97526 9.51953 3.8125 9.59766 3.77344C9.72786 3.73438 9.81901 3.7474 9.87109 3.8125C9.92318 3.8776 9.92318 3.96875 9.87109 4.08594C9.54557 4.6849 9.29167 5.20573 9.10938 5.64844C8.9401 6.07812 8.85547 6.49479 8.85547 6.89844V26.5859C8.85547 26.8333 9.05078 27.1068 9.44141 27.4062C9.96224 27.8099 10.2357 28.0312 10.2617 28.0703ZM15.1836 19.3594C15.0273 18.9688 14.7344 18.6497 14.3047 18.4023C13.875 18.1549 13.4258 18.0312 12.957 18.0312C12.5924 18.0312 12.2669 18.1094 11.9805 18.2656C11.694 18.4219 11.5508 18.6432 11.5508 18.9297C11.5508 19.2812 11.7461 19.5352 12.1367 19.6914C12.4362 19.8086 12.8268 19.8672 13.3086 19.8672C13.6081 19.8672 13.9336 19.8216 14.2852 19.7305C14.6497 19.6393 14.9492 19.5156 15.1836 19.3594ZM47.3711 27.25C47.3451 27.2891 47.1823 27.4258 46.8828 27.6602C46.7526 27.7643 46.6029 27.901 46.4336 28.0703C46.2643 28.2396 46.1146 28.4023 45.9844 28.5586C45.9583 28.5977 45.8737 28.7083 45.7305 28.8906C45.6784 28.9818 45.6133 29.0273 45.5352 29.0273C45.457 29.0273 45.3659 28.9948 45.2617 28.9297C44.7539 28.6042 44.2786 28.1745 43.8359 27.6406C43.1979 26.8594 42.8789 26.0651 42.8789 25.2578C42.4492 26.1562 41.7721 26.9701 40.8477 27.6992C39.6628 28.6237 38.4128 29.0859 37.0977 29.0859C34.7148 29.0859 32.8789 28.2982 31.5898 26.7227C30.4701 25.3555 29.9102 23.6302 29.9102 21.5469C29.9102 20.3359 30.0599 19.1901 30.3594 18.1094C30.6068 17.1979 30.9779 16.2539 31.4727 15.2773C31.6549 14.9258 32.1107 14.112 32.8398 12.8359C32.9049 12.6927 32.8138 12.5365 32.5664 12.3672C32.4102 12.263 32.1107 12.1198 31.668 11.9375C31.4336 11.8203 31.1992 11.7031 30.9648 11.5859C30.8607 11.5469 30.8086 11.4818 30.8086 11.3906C30.8086 11.2995 30.9128 11.2279 31.1211 11.1758C31.3424 11.1237 31.5703 11.0716 31.8047 11.0195C32.2083 10.9284 32.6445 10.7982 33.1133 10.6289C33.5951 10.4466 34.0443 10.2448 34.4609 10.0234C34.8776 9.80208 35.2878 9.58073 35.6914 9.35938C35.7956 9.32031 35.8672 9.30078 35.9062 9.30078C35.9583 9.30078 36.0039 9.33333 36.043 9.39844C36.0951 9.46354 36.1016 9.5612 36.0625 9.69141C36.0234 9.80859 35.9779 9.89323 35.9258 9.94531C34.7669 11.4427 33.875 12.9596 33.25 14.4961C32.5078 16.306 32.1367 18.1224 32.1367 19.9453C32.1367 22.0286 32.612 23.7409 33.5625 25.082C34.526 26.4232 35.8086 27.0938 37.4102 27.0938C38.5039 27.0938 39.5586 26.7617 40.5742 26.0977C41.6029 25.4336 42.306 24.6328 42.6836 23.6953V11.7422C42.6836 11.5078 42.5208 11.2409 42.1953 10.9414C41.9349 10.7331 41.681 10.5182 41.4336 10.2969C41.3555 10.2188 41.3164 10.1406 41.3164 10.0625C41.3164 9.90625 41.4466 9.82812 41.707 9.82812C41.8503 9.82812 42.2279 9.84766 42.8398 9.88672C43.4518 9.92578 43.8164 9.94531 43.9336 9.94531C44.4674 9.94531 44.8776 9.9388 45.1641 9.92578C45.4635 9.89974 45.8086 9.86719 46.1992 9.82812C46.4336 9.82812 46.5508 9.91276 46.5508 10.082C46.5508 10.1732 46.5117 10.2578 46.4336 10.3359C46.1341 10.5703 45.8932 10.7656 45.7109 10.9219C45.3594 11.2214 45.1836 11.4948 45.1836 11.7422V23.2656C45.1836 24.3594 45.4635 25.2253 46.0234 25.8633C46.2057 26.0716 46.6289 26.3906 47.293 26.8203C47.3841 26.8724 47.4297 26.957 47.4297 27.0742C47.4297 27.1263 47.4102 27.1849 47.3711 27.25ZM59.2852 10.7656C59.2852 10.974 59.194 11.0781 59.0117 11.0781C58.9466 11.0781 58.6276 11.0651 58.0547 11.0391C57.4818 11.013 56.9414 11 56.4336 11V23.9297C56.4336 24.8542 56.694 25.6419 57.2148 26.293C57.3581 26.4753 57.7357 26.8203 58.3477 27.3281C58.4518 27.4062 58.5039 27.4974 58.5039 27.6016C58.5039 27.6667 58.4518 27.7383 58.3477 27.8164C58.2435 27.8815 58.1263 27.9531 57.9961 28.0312C57.8268 28.1615 57.6966 28.2656 57.6055 28.3438C57.2409 28.6693 57.0065 28.9036 56.9023 29.0469C56.7982 29.151 56.694 29.2031 56.5898 29.2031C56.4987 29.2031 56.4076 29.1771 56.3164 29.125C55.7565 28.8125 55.2617 28.2786 54.832 27.5234C54.2331 26.4688 53.9336 25.2057 53.9336 23.7344V11C53.5169 11 53.1198 11.013 52.7422 11.0391C52.3646 11.0521 51.9805 11.0651 51.5898 11.0781C51.4076 11.0781 51.3164 10.974 51.3164 10.7656V10.1406C51.3164 9.93229 51.4336 9.82812 51.668 9.82812C51.7331 9.82812 52.0195 9.84115 52.5273 9.86719C53.0352 9.89323 53.5039 9.90625 53.9336 9.90625V8.42188C53.9336 7.66667 53.7708 7.24349 53.4453 7.15234C53.224 7.1263 53.0742 7.10677 52.9961 7.09375C52.8138 7.09375 52.7227 7.0026 52.7227 6.82031C52.7227 6.74219 52.7617 6.66406 52.8398 6.58594C53.1263 6.33854 53.4193 6.07812 53.7188 5.80469C54.0182 5.51823 54.3503 5.19271 54.7148 4.82812C55.1315 4.39844 55.4505 4.04036 55.6719 3.75391C55.9062 3.46745 56.1341 3.1875 56.3555 2.91406C56.3945 2.84896 56.4466 2.81641 56.5117 2.81641C56.6159 2.81641 56.668 2.91406 56.668 3.10938C56.6289 3.44792 56.5898 3.78646 56.5508 4.125C56.4727 4.94531 56.4336 5.79167 56.4336 6.66406V9.90625C56.8633 9.90625 57.2865 9.89974 57.7031 9.88672C58.1198 9.8737 58.556 9.85417 59.0117 9.82812C59.194 9.82812 59.2852 9.91927 59.2852 10.1016V10.7656ZM80.8086 27.9922C80.8997 28.1354 80.9453 28.2396 80.9453 28.3047C80.9453 28.4349 80.8477 28.5 80.6523 28.5C80.6003 28.5 80.3854 28.4805 80.0078 28.4414C79.6302 28.4023 79.2721 28.3828 78.9336 28.3828C78.6992 28.3828 78.4388 28.4023 78.1523 28.4414C77.8659 28.4805 77.6966 28.5 77.6445 28.5C77.3451 28.5 77.1953 28.4284 77.1953 28.2852C77.1953 28.2331 77.2279 28.1615 77.293 28.0703C77.4102 27.901 77.5013 27.7253 77.5664 27.543C77.6445 27.3477 77.6836 27.1328 77.6836 26.8984L77.5664 25.0234C77.0586 26.0911 76.2188 27.0221 75.0469 27.8164C73.7448 28.6888 72.3841 29.125 70.9648 29.125C68.9596 29.125 67.2669 28.5326 65.8867 27.3477C64.4284 26.0977 63.6992 24.4766 63.6992 22.4844C63.6992 20.4792 64.4935 18.7995 66.082 17.4453C67.6055 16.1432 69.4284 15.4922 71.5508 15.4922C72.5794 15.4922 73.5625 15.694 74.5 16.0977C75.4505 16.5013 76.1732 16.9896 76.668 17.5625C76.668 16.9896 76.3359 16.1367 75.6719 15.0039C74.8906 13.6628 73.9727 12.5625 72.918 11.7031C71.5898 10.6094 70.2227 10.0625 68.8164 10.0625C67.944 10.0625 67.1953 10.2448 66.5703 10.6094C65.8542 11.026 65.4961 11.599 65.4961 12.3281C65.4961 12.7448 65.6003 13.0898 65.8086 13.3633C66.0299 13.6367 66.3294 13.7734 66.707 13.7734C66.9674 13.7734 67.1953 13.6888 67.3906 13.5195C67.5859 13.3503 67.6836 13.1484 67.6836 12.9141C67.6836 12.7448 67.6576 12.582 67.6055 12.4258C67.5664 12.2565 67.5273 12.1068 67.4883 11.9766C67.4492 11.8854 67.4557 11.8268 67.5078 11.8008C67.5339 11.7878 67.6185 11.7812 67.7617 11.7812C68.1263 11.8203 68.4583 11.9896 68.7578 12.2891C69.0573 12.5885 69.207 12.9271 69.207 13.3047C69.207 13.9167 68.9596 14.431 68.4648 14.8477C67.9831 15.2513 67.4232 15.4531 66.7852 15.4531C66.0299 15.4531 65.4049 15.1992 64.9102 14.6914C64.4154 14.1836 64.168 13.5 64.168 12.6406C64.168 11.5208 64.7604 10.6484 65.9453 10.0234C66.987 9.47656 68.2435 9.20312 69.7148 9.20312C71.1602 9.20312 72.5859 9.66536 73.9922 10.5898C75.3984 11.5013 76.5378 12.7448 77.4102 14.3203C78.0221 15.4271 78.5104 16.8008 78.875 18.4414C79.1094 19.4831 79.3307 20.9154 79.5391 22.7383C79.7474 24.5482 79.9232 25.7917 80.0664 26.4688C80.1315 26.8073 80.2552 27.1328 80.4375 27.4453C80.6328 27.7318 80.7565 27.9141 80.8086 27.9922ZM77.4883 21.7422C77.4883 20.2708 76.9414 19.099 75.8477 18.2266C74.7669 17.3411 73.3477 16.8984 71.5898 16.8984C70.1576 16.8984 68.9076 17.3672 67.8398 18.3047C66.7721 19.2422 66.2383 20.401 66.2383 21.7812C66.2383 23.2526 66.7786 24.4961 67.8594 25.5117C68.9531 26.5143 70.2487 27.0156 71.7461 27.0156C73.4779 27.0156 74.8646 26.5273 75.9062 25.5508C76.9609 24.5612 77.4883 23.2917 77.4883 21.7422Z" fill="#090909"/>
</svg>
