<svg width="274" height="29" viewBox="0 0 274 29" fill="none" xmlns="http://www.w3.org/2000/svg">
<path d="M3.50621 0.836157H13.1624V5.66424H5.43745L5.31675 5.90565L11.7542 17.654C13.0685 20.0144 13.7257 21.8115 13.7257 23.0454C13.7257 25.7545 12.8271 27.7393 11.03 29H0.367958V24.3328H8.69641L8.81711 24.0914L1.57498 11.0958C0.528894 9.21825 0.00585147 7.68936 0.00585147 6.50916C0.00585147 3.7196 1.17264 1.8286 3.50621 0.836157ZM25.7032 8.44039H29.5254C30.7056 9.94247 31.5103 11.4445 31.9394 12.9466C32.3686 14.4487 32.5832 16.3263 32.5832 18.5794V29H27.2321V18.177C27.2321 15.6289 26.8834 13.7915 26.186 12.665H21.6798V29H16.3286V0.836157H21.6798V9.88882C22.2698 9.35237 22.8197 8.97685 23.3293 8.76227C23.8658 8.54769 24.6571 8.44039 25.7032 8.44039ZM45.592 19.7059H41.2869C40.7237 20.4033 40.442 21.2751 40.442 22.3211C40.442 23.3672 40.7371 24.1853 41.3272 24.7754H45.592V19.7059ZM36.9417 8.44039H46.9197C48.5291 9.40601 49.5886 10.5192 50.0982 11.7798C50.6078 13.0137 50.8626 14.7035 50.8626 16.8493V22.8844C50.8626 25.1107 50.9163 27.1492 51.0236 29H46.4369L45.7127 27.5516C44.6666 28.5172 43.1913 29 41.2869 29H38.7522C36.4723 27.4979 35.3323 25.3387 35.3323 22.5223C35.3323 19.6791 36.4991 17.4394 38.8327 15.8032H42.6147C43.6607 15.8032 44.6398 16.1251 45.5517 16.7688V14.7571C45.5517 13.7111 45.0958 13.0137 44.1838 12.665H36.9417V8.44039ZM56.3348 8.44039H65.2265V12.665H58.95L62.7722 18.338C64.4889 20.7788 65.4411 22.4553 65.6289 23.3672C65.7361 23.7964 65.7898 24.239 65.7898 24.695C65.7898 26.5994 65.079 28.0344 63.6574 29H53.3977V24.7754H60.7605L56.4555 18.4587C56.2677 18.1636 55.9727 17.7479 55.5703 17.2114C55.1948 16.675 54.8998 16.2458 54.6852 15.9239C54.4706 15.5752 54.3231 15.3204 54.2426 15.1595C54.1621 14.9985 54.0549 14.7974 53.9207 14.556C53.7866 14.2877 53.6928 14.0598 53.6391 13.872C53.5318 13.3624 53.4782 12.9466 53.4782 12.6247C53.4782 10.6667 54.4304 9.2719 56.3348 8.44039ZM77.6928 19.7059H73.3877C72.8245 20.4033 72.5428 21.2751 72.5428 22.3211C72.5428 23.3672 72.8379 24.1853 73.428 24.7754H77.6928V19.7059ZM69.0425 8.44039H79.0205C80.6299 9.40601 81.6894 10.5192 82.199 11.7798C82.7086 13.0137 82.9634 14.7035 82.9634 16.8493V22.8844C82.9634 25.1107 83.0171 27.1492 83.1244 29H78.5377L77.8135 27.5516C76.7674 28.5172 75.2922 29 73.3877 29H70.853C68.5731 27.4979 67.4331 25.3387 67.4331 22.5223C67.4331 19.6791 68.5999 17.4394 70.9335 15.8032H74.7155C75.7615 15.8032 76.7406 16.1251 77.6526 16.7688V14.7571C77.6526 13.7111 77.1966 13.0137 76.2846 12.665H69.0425V8.44039ZM95.3559 8.44039H99.6207C100.801 9.94247 101.606 11.4445 102.035 12.9466C102.464 14.4487 102.678 16.3263 102.678 18.5794V29H97.3273V18.177C97.3273 15.6289 96.9786 13.7915 96.2812 12.665H91.775V29H86.4239V8.44039H90.6082L91.3325 9.88882C91.9226 9.35237 92.4724 8.97685 92.982 8.76227C93.5185 8.54769 94.3098 8.44039 95.3559 8.44039ZM114.923 8.44039H119.188C120.368 9.94247 121.172 11.4445 121.602 12.9466C122.031 14.4487 122.245 16.3263 122.245 18.5794V29H116.894V18.177C116.894 15.6289 116.546 13.7915 115.848 12.665H111.342V29H105.991V8.44039H110.175L110.899 9.88882C111.489 9.35237 112.039 8.97685 112.549 8.76227C113.085 8.54769 113.877 8.44039 114.923 8.44039ZM135.254 19.7059H130.949C130.386 20.4033 130.104 21.2751 130.104 22.3211C130.104 23.3672 130.399 24.1853 130.989 24.7754H135.254V19.7059ZM126.604 8.44039H136.582C138.191 9.40601 139.251 10.5192 139.76 11.7798C140.27 13.0137 140.525 14.7035 140.525 16.8493V22.8844C140.525 25.1107 140.579 27.1492 140.686 29H136.099L135.375 27.5516C134.329 28.5172 132.854 29 130.949 29H128.414C126.134 27.4979 124.995 25.3387 124.995 22.5223C124.995 19.6791 126.161 17.4394 128.495 15.8032H132.277C133.323 15.8032 134.302 16.1251 135.214 16.7688V14.7571C135.214 13.7111 134.758 13.0137 133.846 12.665H126.604V8.44039ZM152.917 8.44039H155.774L156.78 9.84859C157.343 9.33896 157.879 8.97685 158.389 8.76227C158.926 8.54769 159.717 8.44039 160.763 8.44039H165.229C166.409 9.94247 167.214 11.4445 167.643 12.9466C168.072 14.4487 168.287 16.3263 168.287 18.5794V29H162.936V18.177C162.936 15.7093 162.56 13.872 161.809 12.665H157.947C158.537 13.8183 158.832 15.3875 158.832 17.3724V29H153.481V18.177C153.481 15.6289 153.132 13.7915 152.434 12.665H149.336V29H143.985V8.44039H148.17L148.894 9.88882C149.484 9.35237 150.034 8.97685 150.543 8.76227C151.08 8.54769 151.871 8.44039 152.917 8.44039ZM181.264 19.7059H176.959C176.396 20.4033 176.114 21.2751 176.114 22.3211C176.114 23.3672 176.409 24.1853 176.999 24.7754H181.264V19.7059ZM172.614 8.44039H182.592C184.201 9.40601 185.261 10.5192 185.77 11.7798C186.28 13.0137 186.535 14.7035 186.535 16.8493V22.8844C186.535 25.1107 186.588 27.1492 186.696 29H182.109L181.385 27.5516C180.339 28.5172 178.863 29 176.959 29H174.424C172.144 27.4979 171.004 25.3387 171.004 22.5223C171.004 19.6791 172.171 17.4394 174.505 15.8032H178.287C179.333 15.8032 180.312 16.1251 181.224 16.7688V14.7571C181.224 13.7111 180.768 13.0137 179.856 12.665H172.614V8.44039ZM209.193 29L201.669 13.4294L201.468 13.5099L201.71 18.2575V29H196.64V0.836157H200.704L208.107 17.0103L208.308 16.9298L207.865 11.981V0.836157H212.935V29H209.193ZM225.889 12.665H222.872C222.469 13.1478 222.134 13.8183 221.866 14.6767C221.624 15.535 221.504 16.3665 221.504 17.1712H227.257C227.311 16.3665 227.204 15.535 226.935 14.6767C226.667 13.7915 226.318 13.121 225.889 12.665ZM231.361 24.7754V29H221.142C219.264 27.7393 217.936 26.1836 217.158 24.3328C216.407 22.4553 216.032 20.5643 216.032 18.6598C216.032 14.2609 217.695 10.8544 221.021 8.44039H227.539C229.336 9.75471 230.556 11.1495 231.2 12.6247C231.844 14.1 232.166 15.5886 232.166 17.0907C232.166 18.5928 232.045 19.8803 231.804 20.9532H221.785C221.866 21.5701 222.094 22.2809 222.469 23.0856C222.872 23.8635 223.301 24.4267 223.757 24.7754H231.361ZM244.044 8.44039H249.355V24.7754H252.171C253.056 23.3538 253.499 21.3958 253.499 18.9013V8.44039H258.85V19.1427C258.85 23.6757 257.589 26.9615 255.068 29H251.728C249.663 29 247.96 28.3831 246.619 27.1492C245.277 28.3831 243.628 29 241.67 29H238.33C235.809 27.2297 234.548 23.9439 234.548 19.1427V8.44039H239.9V19.1427C239.9 21.5299 240.329 23.4075 241.187 24.7754H244.044V8.44039ZM263.595 8.44039H272.487V12.665H266.21L270.033 18.338C271.749 20.7788 272.702 22.4553 272.889 23.3672C272.997 23.7964 273.05 24.239 273.05 24.695C273.05 26.5994 272.339 28.0344 270.918 29H260.658V24.7754H268.021L263.716 18.4587C263.528 18.1636 263.233 17.7479 262.831 17.2114C262.455 16.675 262.16 16.2458 261.946 15.9239C261.731 15.5752 261.583 15.3204 261.503 15.1595C261.423 14.9985 261.315 14.7974 261.181 14.556C261.047 14.2877 260.953 14.0598 260.9 13.872C260.792 13.3624 260.739 12.9466 260.739 12.6247C260.739 10.6667 261.691 9.2719 263.595 8.44039Z" fill="#4A5E6D"/>
</svg>
