<svg width="151" height="180" viewBox="0 0 151 180" fill="none" xmlns="http://www.w3.org/2000/svg">
<path d="M135.348 56.0324C134.813 58.3257 136.239 60.6182 138.532 61.1528C140.825 61.6874 143.118 60.2618 143.652 57.9685C144.187 55.6753 142.761 53.3828 140.468 52.8482C138.175 52.3135 135.882 53.7392 135.348 56.0324ZM6.66607 139.938L5.95253 140.298L6.66607 139.938ZM16.6923 3.29672C16.2866 3.47099 16.099 3.94112 16.2733 4.34679L19.1131 10.9576C19.2874 11.3632 19.7575 11.5508 20.1632 11.3765C20.5689 11.2023 20.7565 10.7321 20.5822 10.3265L18.0579 4.45024L23.9341 1.92593C24.3398 1.75166 24.5274 1.28153 24.3531 0.875857C24.1788 0.470188 23.7087 0.282599 23.303 0.456867L16.6923 3.29672ZM139.671 56.2196C82.5206 43.6866 43.8274 54.1287 22.0171 73.0683C0.208989 92.006 -4.61561 119.381 5.95253 140.298L7.37961 139.577C-2.83033 119.369 1.76201 92.775 23.0654 74.2755C44.3666 55.778 82.4794 45.3144 139.329 57.7814L139.671 56.2196ZM5.95253 140.298C19.4425 166.999 44.3738 178.732 69.7259 179.585C95.0473 180.438 120.89 170.446 136.348 153.577C144.085 145.132 149.232 134.95 150.377 123.54C151.522 112.126 148.655 99.5516 140.484 86.3401C124.161 59.9492 86.6384 30.954 17.3041 3.28874L16.7115 4.77376C85.9391 32.3964 123.072 61.2289 139.124 87.1811C147.14 100.141 149.89 112.368 148.786 123.38C147.681 134.396 142.711 144.265 135.169 152.496C120.068 168.977 94.698 178.826 69.7797 177.987C44.892 177.149 20.5566 165.658 7.37961 139.577L5.95253 140.298Z" fill="#565656"/>
</svg>
