<svg width="271" height="50" fill="none" xmlns="http://www.w3.org/2000/svg">
  <path fill-rule="evenodd" clip-rule="evenodd" d="M59.83.41 39.65 34.38V50H20.6V34.33L.5.41h20.47l9.2 16.16L39.36.41h20.47ZM29.56 19.56 19.8 2.41H4l18.61 31.37V48h15.04V33.84L56.32 2.4h-15.8l-9.77 17.15h-1.19ZM88.58 50l-2.01-6.02H69.92L67.9 50H48.08L66.32.4h23.85L108.4 50H88.58Zm-20.1-8.02H88l2 6.02h15.53L88.77 2.4H67.71L50.95 48h15.52l2-6.02ZM110.91 50V.4h24.9c9.61 0 16.48 2.5 20.93 7.08 4.44 4.56 6.14 10.85 6.14 17.72 0 6.84-1.7 13.12-6.14 17.7-4.45 4.57-11.32 7.09-20.93 7.09h-24.9Zm90.15 0-2.01-6.02H182.4L180.4 50h-19.83L178.8.4h23.85L220.9 50h-19.83Zm-20.1-8.02h19.53l2 6.02h15.53L201.26 2.4h-21.05L163.44 48h15.52l2-6.02ZM228.27 50 210.04.4h19.81l10.36 29.74L250.56.4h19.8L252.14 50h-23.85Zm.15-47.59H212.9L229.68 48h21.05L267.5 2.4h-15.52L241.02 33.9h-1.63L228.43 2.4ZM84.33 30.85l-4.78-14.33h-2.61l-4.78 14.33h12.16Zm-9.39-2h6.6l-3.3-9.9-3.3 9.9Zm66.71 2.72c1.24-1.16 2.16-3.1 2.16-6.36 0-3.3-.92-5.24-2.16-6.39-1.26-1.17-3.2-1.82-5.83-1.82h-5.81v16.4h5.81c2.63 0 4.56-.65 5.83-1.83Zm-5.83 3.84c5.86 0 9.99-2.93 9.99-10.2 0-7.33-4.13-10.2-9.99-10.2h-7.81v20.4h7.81Zm61-4.56-4.78-14.33h-2.61l-4.78 14.33h12.16Zm-9.4-2h6.62l-3.3-9.9-3.31 9.9Zm-26.53-3.64c0-13.14-6.5-22.8-25.07-22.8h-22.9V48h22.9c18.56 0 25.07-9.71 25.07-22.8Z" fill="url(#a)"/>
  <defs>
    <linearGradient id="a" x1="4" y1="17" x2="268" y2="17" gradientUnits="userSpaceOnUse">
      <stop stop-color="#FF5C9D"/>
      <stop offset="1" stop-color="#D83BFF"/>
    </linearGradient>
  </defs>
</svg>
